# xmcd CD database file
#
# Track frame offsets:
#	150
#	32267
#	61332
#	95522
#	124215
#	156105
#	185485
#	211885
#
# Disc length: 3284 seconds
#
# Revision: 0
# Processed by: cddbd v1.5.1PL0 Copyright (c) Steve Scherf et al.
# Submitted via: CDex 1.51
#
DISCID=640cd208
DTITLE=Don Friedman TRIO - Timeless
DYEAR=2004
DGENRE=Jazz
TTITLE0=Alone Together
TTITLE1=Star Eyes
TTITLE2=Body and Soul
TTITLE3=Emily
TTITLE4=Turn Out the Stars
TTITLE5=What is This Thing Called Love?
TTITLE6=Bouncing with Bud
TTITLE7='Round Midnight
EXTD=YEAR: 2004
EXTT0=
EXTT1=
EXTT2=
EXTT3=
EXTT4=
EXTT5=
EXTT6=
EXTT7=
PLAYORDER=
